<mxfile host="app.diagrams.net" agent="Mozilla/5.0 (Windows NT 10.0; Win64; x64) AppleWebKit/537.36 (KHTML, like Gecko) Chrome/131.0.0.0 Safari/537.36" version="25.0.3" pages="2">
  <diagram name="AzureAI" id="OpVehoEWyaYxuq4tvKD_">
    <mxGraphModel dx="2537" dy="1059" grid="1" gridSize="10" guides="1" tooltips="1" connect="1" arrows="1" fold="1" page="1" pageScale="1" pageWidth="850" pageHeight="1100" math="0" shadow="0">
      <root>
        <mxCell id="0" />
        <mxCell id="1" parent="0" />
        <mxCell id="WMn-b6ElxN8xJxoVkPEa-3" value="&lt;b&gt;File Store (FS)&lt;/b&gt;&lt;div&gt;&lt;br&gt;&lt;/div&gt;&lt;div&gt;&lt;br&gt;including:&lt;/div&gt;&lt;div&gt;&lt;i&gt;.htm,&amp;nbsp;&lt;span style=&quot;background-color: initial;&quot;&gt;.doc&lt;/span&gt;&lt;/i&gt;&lt;/div&gt;&lt;div&gt;&lt;i&gt;.xls,&amp;nbsp;&lt;span style=&quot;background-color: initial;&quot;&gt;.pdf, etc.&lt;/span&gt;&lt;/i&gt;&lt;/div&gt;" style="shape=cylinder3;whiteSpace=wrap;html=1;boundedLbl=1;backgroundOutline=1;size=15;" vertex="1" parent="1">
          <mxGeometry x="220" y="83" width="110" height="180" as="geometry" />
        </mxCell>
        <mxCell id="WMn-b6ElxN8xJxoVkPEa-4" value="On-Prem" style="swimlane;whiteSpace=wrap;html=1;fillColor=#e1d5e7;strokeColor=#9673a6;" vertex="1" parent="1">
          <mxGeometry x="30" y="44" width="330" height="240" as="geometry" />
        </mxCell>
        <mxCell id="WMn-b6ElxN8xJxoVkPEa-1" value="NXT UI&lt;br&gt;(reads from FS)" style="verticalLabelPosition=bottom;aspect=fixed;shape=mxgraph.salesforce.platform;html=1;spacing=2;labelPosition=center;align=center;verticalAlign=top;" vertex="1" parent="WMn-b6ElxN8xJxoVkPEa-4">
          <mxGeometry x="40" y="100" width="39" height="60" as="geometry" />
        </mxCell>
        <mxCell id="WMn-b6ElxN8xJxoVkPEa-17" value="" style="endArrow=classic;html=1;rounded=0;strokeWidth=2;" edge="1" parent="WMn-b6ElxN8xJxoVkPEa-4">
          <mxGeometry width="50" height="50" relative="1" as="geometry">
            <mxPoint x="180" y="131" as="sourcePoint" />
            <mxPoint x="90" y="131" as="targetPoint" />
          </mxGeometry>
        </mxCell>
        <mxCell id="WMn-b6ElxN8xJxoVkPEa-5" value="Challenges:&lt;div&gt;&lt;ul&gt;&lt;li&gt;need an Azure OpenAI subscription&lt;/li&gt;&lt;li&gt;On-Prem current state makes read challenging&amp;nbsp;&lt;/li&gt;&lt;li&gt;&lt;br&gt;&lt;/li&gt;&lt;/ul&gt;&lt;/div&gt;" style="text;html=1;align=left;verticalAlign=middle;resizable=0;points=[];autosize=1;strokeColor=none;fillColor=none;" vertex="1" parent="1">
          <mxGeometry x="40" y="1120" width="320" height="100" as="geometry" />
        </mxCell>
        <mxCell id="WMn-b6ElxN8xJxoVkPEa-8" value="Azure OpenAI&lt;div&gt;GPT LLM&lt;/div&gt;" style="image;aspect=fixed;html=1;points=[];align=center;fontSize=12;image=img/lib/azure2/app_services/Search_Services.svg;" vertex="1" parent="1">
          <mxGeometry x="300" y="673" width="169.22" height="122.23" as="geometry" />
        </mxCell>
        <mxCell id="WMn-b6ElxN8xJxoVkPEa-9" value="Azure OpenAI provides the base LLM to:&lt;div&gt;- understand natural language&lt;/div&gt;&lt;div&gt;- be able to respond like a human&lt;/div&gt;&lt;div&gt;- use cognition to understand requests&lt;/div&gt;&lt;div&gt;- RAG will amplify it&#39;s abilities to use internal cognition&lt;/div&gt;" style="text;html=1;align=left;verticalAlign=middle;resizable=0;points=[];autosize=1;strokeColor=none;fillColor=none;" vertex="1" parent="1">
          <mxGeometry x="480" y="643" width="310" height="90" as="geometry" />
        </mxCell>
        <mxCell id="WMn-b6ElxN8xJxoVkPEa-11" value="&lt;b&gt;&lt;font style=&quot;font-size: 14px;&quot;&gt;RAG&lt;/font&gt;&lt;/b&gt;" style="sketch=0;html=1;aspect=fixed;strokeColor=none;shadow=0;fillColor=#3B8DF1;verticalAlign=top;labelPosition=center;verticalLabelPosition=bottom;shape=mxgraph.gcp2.files" vertex="1" parent="1">
          <mxGeometry x="350" y="406" width="100" height="97" as="geometry" />
        </mxCell>
        <mxCell id="WMn-b6ElxN8xJxoVkPEa-12" value="Retrieval-Augmented Generation (RAG) will:&lt;div&gt;- make use of internal context&lt;/div&gt;&lt;div&gt;- extends the LLM ability to understand SH&lt;/div&gt;&lt;div&gt;- factual grounding and relevancy&lt;/div&gt;" style="text;html=1;align=left;verticalAlign=middle;resizable=0;points=[];autosize=1;strokeColor=none;fillColor=none;" vertex="1" parent="1">
          <mxGeometry x="480" y="419.5" width="260" height="70" as="geometry" />
        </mxCell>
        <mxCell id="WMn-b6ElxN8xJxoVkPEa-15" value="&lt;b&gt;&lt;font style=&quot;font-size: 21px;&quot;&gt;Enhance a GPT Model tailored to SH&lt;/font&gt;&lt;/b&gt;" style="text;html=1;align=left;verticalAlign=middle;resizable=0;points=[];autosize=1;strokeColor=none;fillColor=none;fontStyle=4" vertex="1" parent="1">
          <mxGeometry x="260.00000000000006" width="390" height="40" as="geometry" />
        </mxCell>
        <mxCell id="WMn-b6ElxN8xJxoVkPEa-16" value="Benefits:&lt;div&gt;&lt;ul&gt;&lt;li&gt;control over what goes and does not go into the model&lt;/li&gt;&lt;li&gt;ability to add or remove other sources&lt;/li&gt;&lt;/ul&gt;&lt;/div&gt;" style="text;html=1;align=left;verticalAlign=middle;resizable=0;points=[];autosize=1;strokeColor=none;fillColor=none;" vertex="1" parent="1">
          <mxGeometry x="40" y="1270" width="350" height="80" as="geometry" />
        </mxCell>
        <mxCell id="WMn-b6ElxN8xJxoVkPEa-18" value="Files will be made available to RAG layer. TBD on the following:&lt;div&gt;&lt;ol&gt;&lt;li&gt;store files in FS AND RAG (redundancy issue)&lt;/li&gt;&lt;li&gt;store files in RAG, connect NXT UI to Azure to read files.&lt;/li&gt;&lt;li&gt;store files in FS, connect RAG to read files virtually&lt;/li&gt;&lt;/ol&gt;&lt;/div&gt;" style="text;html=1;align=left;verticalAlign=top;rounded=0;whiteSpace=wrap;" vertex="1" parent="1">
          <mxGeometry x="405" y="163" width="365" height="200" as="geometry" />
        </mxCell>
        <mxCell id="WMn-b6ElxN8xJxoVkPEa-19" value="" style="shape=link;html=1;rounded=0;" edge="1" parent="1">
          <mxGeometry width="100" relative="1" as="geometry">
            <mxPoint x="400" y="533" as="sourcePoint" />
            <mxPoint x="400" y="663" as="targetPoint" />
            <Array as="points">
              <mxPoint x="410" y="563" />
              <mxPoint x="390" y="593" />
              <mxPoint x="410" y="633" />
            </Array>
          </mxGeometry>
        </mxCell>
        <mxCell id="WMn-b6ElxN8xJxoVkPEa-20" value="Azure" style="swimlane;whiteSpace=wrap;html=1;fillColor=#dae8fc;strokeColor=#6c8ebf;" vertex="1" parent="1">
          <mxGeometry x="250" y="334.5" width="575" height="508.5" as="geometry" />
        </mxCell>
        <mxCell id="WMn-b6ElxN8xJxoVkPEa-25" value="&lt;b&gt;REST API&lt;/b&gt;" style="endArrow=classic;startArrow=classic;html=1;rounded=0;strokeWidth=2;" edge="1" parent="WMn-b6ElxN8xJxoVkPEa-20">
          <mxGeometry x="0.1535" y="-8" width="50" height="50" relative="1" as="geometry">
            <mxPoint x="-150" y="598.5" as="sourcePoint" />
            <mxPoint x="40" y="410.73" as="targetPoint" />
            <Array as="points">
              <mxPoint x="-150" y="410.5" />
            </Array>
            <mxPoint as="offset" />
          </mxGeometry>
        </mxCell>
        <mxCell id="WMn-b6ElxN8xJxoVkPEa-14" style="edgeStyle=orthogonalEdgeStyle;rounded=0;orthogonalLoop=1;jettySize=auto;html=1;strokeWidth=2;" edge="1" parent="1" source="WMn-b6ElxN8xJxoVkPEa-3">
          <mxGeometry relative="1" as="geometry">
            <mxPoint x="400" y="393.0000000000001" as="targetPoint" />
          </mxGeometry>
        </mxCell>
        <mxCell id="WMn-b6ElxN8xJxoVkPEa-23" value="&lt;b&gt;WebUI&lt;/b&gt;&lt;br&gt;&lt;br&gt;(to perform search &amp;amp;&lt;div&gt;interact with AI)&lt;/div&gt;" style="shadow=0;dashed=0;html=1;strokeColor=none;fillColor=#4495D1;labelPosition=center;verticalLabelPosition=bottom;verticalAlign=top;align=center;outlineConnect=0;shape=mxgraph.veeam.2d.web_ui;" vertex="1" parent="1">
          <mxGeometry x="65" y="943" width="65" height="60" as="geometry" />
        </mxCell>
        <mxCell id="BW_ore4JzLJ00ylGGFoG-1" value="Questions:&lt;div&gt;&lt;ul&gt;&lt;li&gt;can we include custom pre-existing instructions making Azure AI smarter and more tailored toward us?&lt;/li&gt;&lt;li&gt;ability to add or remove other sources?&lt;/li&gt;&lt;li&gt;how do i make docs available for rag? api call for updates and an initial .html dump&lt;/li&gt;&lt;li&gt;how do we not end up with 2 file store one in ihc and one in Azure&lt;/li&gt;&lt;/ul&gt;&lt;/div&gt;" style="text;html=1;align=left;verticalAlign=top;resizable=0;points=[];autosize=1;strokeColor=none;fillColor=none;labelPosition=center;verticalLabelPosition=middle;" vertex="1" parent="1">
          <mxGeometry x="40" y="1410" width="610" height="110" as="geometry" />
        </mxCell>
        <mxCell id="BW_ore4JzLJ00ylGGFoG-2" value="&lt;div&gt;&lt;b&gt;User&lt;/b&gt;&lt;/div&gt;&lt;div&gt;&lt;br&gt;&lt;/div&gt;&lt;div&gt;writes queries&lt;/div&gt;" style="html=1;verticalLabelPosition=bottom;align=center;labelBackgroundColor=none;verticalAlign=top;strokeWidth=2;strokeColor=#0080F0;shadow=0;dashed=0;shape=mxgraph.ios7.icons.user;" vertex="1" parent="1">
          <mxGeometry x="290" y="953" width="50" height="50" as="geometry" />
        </mxCell>
        <mxCell id="BW_ore4JzLJ00ylGGFoG-3" value="" style="endArrow=classic;html=1;rounded=0;strokeWidth=2;" edge="1" parent="1">
          <mxGeometry width="50" height="50" relative="1" as="geometry">
            <mxPoint x="270" y="977.41" as="sourcePoint" />
            <mxPoint x="160" y="977.41" as="targetPoint" />
          </mxGeometry>
        </mxCell>
        <UserObject label="https://learn.microsoft.com/en-us/azure/search/retrieval-augmented-generation-overview" link="https://learn.microsoft.com/en-us/azure/search/retrieval-augmented-generation-overview" id="BW_ore4JzLJ00ylGGFoG-4">
          <mxCell style="shape=image;verticalLabelPosition=bottom;labelBackgroundColor=default;verticalAlign=top;aspect=fixed;imageAspect=0;image=https://learn.microsoft.com/en-us/azure/search/media/retrieval-augmented-generation-overview/architecture-diagram.png;" vertex="1" parent="1">
            <mxGeometry x="870" y="334.5" width="861" height="388" as="geometry" />
          </mxCell>
        </UserObject>
        <mxCell id="BW_ore4JzLJ00ylGGFoG-5" value="NXT UI" style="text;html=1;align=center;verticalAlign=middle;whiteSpace=wrap;rounded=0;fillColor=default;fontFamily=Segoe UI;fontSize=14;fontStyle=1" vertex="1" parent="1">
          <mxGeometry x="900" y="573" width="70" height="40" as="geometry" />
        </mxCell>
        <mxCell id="BW_ore4JzLJ00ylGGFoG-7" value="File Store&lt;div&gt;(currently NXT uses)&lt;/div&gt;" style="text;html=1;align=left;verticalAlign=middle;whiteSpace=wrap;rounded=0;fontFamily=Segoe UI;fontSize=14;fontStyle=2;" vertex="1" parent="1">
          <mxGeometry x="1640" y="419.5" width="160" height="40" as="geometry" />
        </mxCell>
        <mxCell id="mp3C6aJtlmQ5sVye6Uwl-1" value="if there are concerns over legacy UI currently in NXT, this component can grow and leverage modern tech" style="text;html=1;align=center;verticalAlign=middle;whiteSpace=wrap;rounded=0;fontStyle=2" vertex="1" parent="1">
          <mxGeometry x="-180" y="973" width="190" height="30" as="geometry" />
        </mxCell>
      </root>
    </mxGraphModel>
  </diagram>
  <diagram id="PgWaONiKiZDPuEGXwQcN" name="LivePro">
    <mxGraphModel dx="1434" dy="900" grid="1" gridSize="10" guides="1" tooltips="1" connect="1" arrows="1" fold="1" page="1" pageScale="1" pageWidth="850" pageHeight="1100" math="0" shadow="0">
      <root>
        <mxCell id="0" />
        <mxCell id="1" parent="0" />
        <mxCell id="ds56nKSa6hzHk7k7WOwx-1" value="Challenges:&lt;div&gt;&lt;ul&gt;&lt;li&gt;&lt;span style=&quot;background-color: initial;&quot;&gt;Migration is very lengthy and complex&lt;/span&gt;&lt;/li&gt;&lt;li&gt;&lt;span style=&quot;background-color: initial;&quot;&gt;Limited to functionalities provided as it relates to AI&lt;/span&gt;&lt;/li&gt;&lt;li&gt;&lt;br&gt;&lt;/li&gt;&lt;/ul&gt;&lt;/div&gt;" style="text;html=1;align=left;verticalAlign=middle;resizable=0;points=[];autosize=1;strokeColor=none;fillColor=none;" vertex="1" parent="1">
          <mxGeometry x="40" y="770" width="330" height="100" as="geometry" />
        </mxCell>
        <mxCell id="1NZ4vI1-VQLjbg0Dmuvm-1" value="&lt;b&gt;File Store (FS)&lt;/b&gt;&lt;div&gt;&lt;br&gt;&lt;/div&gt;&lt;div&gt;&lt;br&gt;including:&lt;/div&gt;&lt;div&gt;&lt;i&gt;.htm,&amp;nbsp;&lt;span style=&quot;background-color: initial;&quot;&gt;.doc&lt;/span&gt;&lt;/i&gt;&lt;/div&gt;&lt;div&gt;&lt;i&gt;.xls,&amp;nbsp;&lt;span style=&quot;background-color: initial;&quot;&gt;.pdf, etc.&lt;/span&gt;&lt;/i&gt;&lt;/div&gt;" style="shape=cylinder3;whiteSpace=wrap;html=1;boundedLbl=1;backgroundOutline=1;size=15;" vertex="1" parent="1">
          <mxGeometry x="220" y="83" width="110" height="180" as="geometry" />
        </mxCell>
        <mxCell id="1NZ4vI1-VQLjbg0Dmuvm-2" value="On-Prem" style="swimlane;whiteSpace=wrap;html=1;fillColor=#e1d5e7;strokeColor=#9673a6;" vertex="1" parent="1">
          <mxGeometry x="30" y="44" width="330" height="240" as="geometry" />
        </mxCell>
        <mxCell id="1NZ4vI1-VQLjbg0Dmuvm-3" value="NXT UI&lt;br&gt;(reads from FS)" style="verticalLabelPosition=bottom;aspect=fixed;shape=mxgraph.salesforce.platform;html=1;spacing=2;labelPosition=center;align=center;verticalAlign=top;" vertex="1" parent="1NZ4vI1-VQLjbg0Dmuvm-2">
          <mxGeometry x="40" y="100" width="39" height="60" as="geometry" />
        </mxCell>
        <mxCell id="1NZ4vI1-VQLjbg0Dmuvm-4" value="" style="endArrow=classic;html=1;rounded=0;strokeWidth=2;" edge="1" parent="1NZ4vI1-VQLjbg0Dmuvm-2">
          <mxGeometry width="50" height="50" relative="1" as="geometry">
            <mxPoint x="180" y="131" as="sourcePoint" />
            <mxPoint x="90" y="131" as="targetPoint" />
          </mxGeometry>
        </mxCell>
        <mxCell id="1NZ4vI1-VQLjbg0Dmuvm-9" value="Large Migration Effort" style="text;html=1;align=left;verticalAlign=top;rounded=0;whiteSpace=wrap;" vertex="1" parent="1">
          <mxGeometry x="405" y="163" width="365" height="47" as="geometry" />
        </mxCell>
        <mxCell id="1NZ4vI1-VQLjbg0Dmuvm-11" value="LivePro" style="swimlane;whiteSpace=wrap;html=1;fillColor=#f8cecc;strokeColor=#b85450;" vertex="1" parent="1">
          <mxGeometry x="250" y="334.5" width="540" height="305.5" as="geometry" />
        </mxCell>
        <mxCell id="1NZ4vI1-VQLjbg0Dmuvm-14" value="LivePro DBs" style="shape=cylinder3;whiteSpace=wrap;html=1;boundedLbl=1;backgroundOutline=1;size=15;" vertex="1" parent="1NZ4vI1-VQLjbg0Dmuvm-11">
          <mxGeometry x="100" y="65.5" width="110" height="114.5" as="geometry" />
        </mxCell>
        <mxCell id="1NZ4vI1-VQLjbg0Dmuvm-15" value="LivePro Platform&lt;div&gt;- AI Tools&lt;/div&gt;&lt;div&gt;- Search Tools&lt;/div&gt;&lt;div&gt;- etc.&lt;/div&gt;" style="verticalLabelPosition=middle;aspect=fixed;html=1;shape=mxgraph.salesforce.platform2;labelPosition=right;align=left;verticalAlign=middle;" vertex="1" parent="1NZ4vI1-VQLjbg0Dmuvm-11">
          <mxGeometry x="330" y="75.5" width="94.5" height="94.5" as="geometry" />
        </mxCell>
        <mxCell id="ez4M8FxxgDxqwfWRifF8-3" value="" style="endArrow=classic;startArrow=classic;html=1;rounded=0;fontSize=12;strokeWidth=2;" edge="1" parent="1NZ4vI1-VQLjbg0Dmuvm-11">
          <mxGeometry width="50" height="50" relative="1" as="geometry">
            <mxPoint x="213" y="125.5" as="sourcePoint" />
            <mxPoint x="323" y="125.5" as="targetPoint" />
          </mxGeometry>
        </mxCell>
        <mxCell id="ez4M8FxxgDxqwfWRifF8-4" value="No control over customization of search models or custom instructions for AI" style="text;html=1;align=left;verticalAlign=top;rounded=0;whiteSpace=wrap;" vertex="1" parent="1NZ4vI1-VQLjbg0Dmuvm-11">
          <mxGeometry x="50" y="215.5" width="365" height="47" as="geometry" />
        </mxCell>
        <mxCell id="1NZ4vI1-VQLjbg0Dmuvm-13" style="edgeStyle=orthogonalEdgeStyle;rounded=0;orthogonalLoop=1;jettySize=auto;html=1;strokeWidth=2;" edge="1" parent="1" source="1NZ4vI1-VQLjbg0Dmuvm-1">
          <mxGeometry relative="1" as="geometry">
            <mxPoint x="400" y="393.0000000000001" as="targetPoint" />
          </mxGeometry>
        </mxCell>
        <mxCell id="ez4M8FxxgDxqwfWRifF8-2" style="edgeStyle=orthogonalEdgeStyle;rounded=0;orthogonalLoop=1;jettySize=auto;html=1;" edge="1" parent="1" source="ez4M8FxxgDxqwfWRifF8-1" target="1NZ4vI1-VQLjbg0Dmuvm-15">
          <mxGeometry relative="1" as="geometry" />
        </mxCell>
        <mxCell id="ez4M8FxxgDxqwfWRifF8-1" value="&lt;div&gt;&lt;b&gt;User&lt;/b&gt;&lt;/div&gt;&lt;div&gt;&lt;br&gt;&lt;/div&gt;&lt;div&gt;writes queries&lt;/div&gt;" style="html=1;verticalLabelPosition=bottom;align=center;labelBackgroundColor=none;verticalAlign=top;strokeWidth=2;strokeColor=#0080F0;shadow=0;dashed=0;shape=mxgraph.ios7.icons.user;" vertex="1" parent="1">
          <mxGeometry x="602.25" y="690" width="50" height="50" as="geometry" />
        </mxCell>
      </root>
    </mxGraphModel>
  </diagram>
</mxfile>
